<svg xmlns="http://www.w3.org/2000/svg" viewBox="0 0 600 286"><g><text x="50%" y="0" style="fill: rgb(54, 58, 61); dominant-baseline: text-before-edge; text-anchor: middle; font-weight: bold; font-size: 13px; font-family: sans-serif;">Loss</text><svg viewBox="0 0 1024 1024" x="102.1875" y="25" height="11" width="11"><path d="M128 533.333h768c23.564 0 42.667-19.103 42.667-42.667v-85.333c0-23.564-19.103-42.667-42.667-42.667h-768c-23.564 0-42.667 19.103-42.667 42.667v85.333c0 23.564 19.103 42.667 42.667 42.667z" style="fill: rgb(229, 116, 57);"/></svg><text x="121.1875" y="23" style="fill: rgb(229, 116, 57); dominant-baseline: text-before-edge; font-size: 11px; font-family: sans-serif;"> EfficientNetB3-512-Baseline</text><svg viewBox="0 0 1024 1024" x="307.15625" y="25" height="11" width="11"><path d="M128 533.333h768c23.564 0 42.667-19.103 42.667-42.667v-85.333c0-23.564-19.103-42.667-42.667-42.667h-768c-23.564 0-42.667 19.103-42.667 42.667v85.333c0 23.564 19.103 42.667 42.667 42.667z" style="fill: rgb(161, 169, 173);"/></svg><text x="326.15625" y="23" style="fill: rgb(161, 169, 173); dominant-baseline: text-before-edge; font-size: 11px; font-family: sans-serif;"> EfficientNetB5-512-Baseline</text><svg viewBox="0 0 1024 1024" x="102.1875" y="39" height="11" width="11"><path d="M128 533.333h768c23.564 0 42.667-19.103 42.667-42.667v-85.333c0-23.564-19.103-42.667-42.667-42.667h-768c-23.564 0-42.667 19.103-42.667 42.667v85.333c0 23.564 19.103 42.667 42.667 42.667z" style="fill: rgb(34, 148, 135);"/></svg><text x="121.1875" y="37" style="fill: rgb(34, 148, 135); dominant-baseline: text-before-edge; font-size: 11px; font-family: sans-serif;"> EfficientNetB4-512-Baseline</text><svg viewBox="0 0 1024 1024" x="307.15625" y="39" height="11" width="11"><path d="M128 533.333h768c23.564 0 42.667-19.103 42.667-42.667v-85.333c0-23.564-19.103-42.667-42.667-42.667h-768c-23.564 0-42.667 19.103-42.667 42.667v85.333c0 23.564 19.103 42.667 42.667 42.667z" style="fill: rgb(161, 40, 100);"/></svg><text x="326.15625" y="37" style="fill: rgb(161, 40, 100); dominant-baseline: text-before-edge; font-size: 11px; font-family: sans-serif;"> EfficientNetB4-512-Baseline</text><svg viewBox="0 0 1024 1024" x="102.1875" y="53" height="11" width="11"><path d="M128 533.333h768c23.564 0 42.667-19.103 42.667-42.667v-85.333c0-23.564-19.103-42.667-42.667-42.667h-768c-23.564 0-42.667 19.103-42.667 42.667v85.333c0 23.564 19.103 42.667 42.667 42.667z" style="fill: rgb(197, 101, 199);"/></svg><text x="121.1875" y="51" style="fill: rgb(197, 101, 199); dominant-baseline: text-before-edge; font-size: 11px; font-family: sans-serif;"> EfficientNetB3-512-Baseline</text><svg viewBox="0 0 1024 1024" x="307.15625" y="53" height="11" width="11"><path d="M128 533.333h768c23.564 0 42.667-19.103 42.667-42.667v-85.333c0-23.564-19.103-42.667-42.667-42.667h-768c-23.564 0-42.667 19.103-42.667 42.667v85.333c0 23.564 19.103 42.667 42.667 42.667z" style="fill: rgb(240, 184, 153);"/></svg><text x="326.15625" y="51" style="fill: rgb(240, 184, 153); dominant-baseline: text-before-edge; font-size: 11px; font-family: sans-serif;"> EfficientNetB4-512-Baseline</text><svg viewBox="0 0 1024 1024" x="102.1875" y="67" height="11" width="11"><path d="M128 533.333h768c23.564 0 42.667-19.103 42.667-42.667v-85.333c0-23.564-19.103-42.667-42.667-42.667h-768c-23.564 0-42.667 19.103-42.667 42.667v85.333c0 23.564 19.103 42.667 42.667 42.667z" style="fill: rgb(83, 135, 221);"/></svg><text x="121.1875" y="65" style="fill: rgb(83, 135, 221); dominant-baseline: text-before-edge; font-size: 11px; font-family: sans-serif;"> EfficientNetB5-512-Baseline</text><svg viewBox="0 0 1024 1024" x="307.15625" y="67" height="11" width="11"><path d="M128 533.333h768c23.564 0 42.667-19.103 42.667-42.667v-85.333c0-23.564-19.103-42.667-42.667-42.667h-768c-23.564 0-42.667 19.103-42.667 42.667v85.333c0 23.564 19.103 42.667 42.667 42.667z" style="fill: rgb(91, 197, 219);"/></svg><text x="326.15625" y="65" style="fill: rgb(91, 197, 219); dominant-baseline: text-before-edge; font-size: 11px; font-family: sans-serif;"> EfficientNetB3-512-Baseline</text><svg viewBox="0 0 1024 1024" x="102.1875" y="81" height="11" width="11"><path d="M128 533.333h768c23.564 0 42.667-19.103 42.667-42.667v-85.333c0-23.564-19.103-42.667-42.667-42.667h-768c-23.564 0-42.667 19.103-42.667 42.667v85.333c0 23.564 19.103 42.667 42.667 42.667z" style="fill: rgb(135, 206, 191);"/></svg><text x="121.1875" y="79" style="fill: rgb(135, 206, 191); dominant-baseline: text-before-edge; font-size: 11px; font-family: sans-serif;"> EfficientNetB3-512-Baseline</text><svg viewBox="0 0 1024 1024" x="307.15625" y="81" height="11" width="11"><path d="M128 533.333h768c23.564 0 42.667-19.103 42.667-42.667v-85.333c0-23.564-19.103-42.667-42.667-42.667h-768c-23.564 0-42.667 19.103-42.667 42.667v85.333c0 23.564 19.103 42.667 42.667 42.667z" style="fill: rgb(218, 76, 76);"/></svg><text x="326.15625" y="79" style="fill: rgb(218, 76, 76); dominant-baseline: text-before-edge; font-size: 11px; font-family: sans-serif;"> EfficientNetB5-512-Baseline</text></g><g transform="translate(0, 92)"><svg class="rv-xy-plot__inner" width="600" height="194"><g transform="translate(46,5)" class="rv-xy-plot__grid-lines"><line y1="139.74207601109177" y2="139.74207601109177" x1="0" x2="534" class="rv-xy-plot__grid-lines__line" style="stroke-width: 0.5;"/><line y1="109.20740750152385" y2="109.20740750152385" x1="0" x2="534" class="rv-xy-plot__grid-lines__line" style="stroke-width: 0.5;"/><line y1="78.67273899195588" y2="78.67273899195588" x1="0" x2="534" class="rv-xy-plot__grid-lines__line" style="stroke-width: 0.5;"/><line y1="48.13807048238793" y2="48.13807048238793" x1="0" x2="534" class="rv-xy-plot__grid-lines__line" style="stroke-width: 0.5;"/><line y1="17.603401972819995" y2="17.603401972819995" x1="0" x2="534" class="rv-xy-plot__grid-lines__line" style="stroke-width: 0.5;"/></g><path d="M0,38.462685542096274L18.413793103448274,108.29093515792005L36.82758620689655,116.32399577620768L55.241379310344826,101.58557042658586L73.6551724137931,121.19433737111854L92.06896551724138,107.1461500819862L110.48275862068965,142.00703965385506L128.89655172413794,130.38856313796865L147.3103448275862,134.37074079479407L165.72413793103448,152.77648240515782L184.13793103448276,136.55202046650584L202.55172413793102,141.19395104865086L220.9655172413793,124.64097765339147L239.3793103448276,152.0462041671317L257.7931034482759,132.7650386751715L276.2068965517241,153.232849428672L294.6206896551724,124.46989689482585L313.03448275862064,151.9329086647837L331.44827586206895,127.99934754427686L349.8620689655172,136.1370586265807L368.2758620689655,159L386.6896551724138,137.8988264381927L405.10344827586204,142.90020861413254L423.51724137931035,133.01756479486275L441.9310344827586,138.82384553969248L460.34482758620686,140.87044461423554L478.7586206896552,145.94917713314388L497.17241379310343,130.58830902363434L515.5862068965517,148.14683687748428L534,133.96897401337534" class="rv-xy-plot__series rv-xy-plot__series--line" transform="translate(46,5)" style="opacity: 1; stroke-width: 1.5; stroke: rgb(218, 76, 76);"/><path d="M0,45.73498278718784L18.413793103448274,115.14554055098169L36.82758620689655,104.42887803370448L55.241379310344826,115.84988367401252L73.6551724137931,135.33398006576067L92.06896551724138,139.46812839641836L110.48275862068965,140.28394701372733L128.89655172413794,133.1408703415949L147.3103448275862,134.69015221105226L165.72413793103448,141.43055209773098L184.13793103448276,136.44372998634995L202.55172413793102,135.04141376853275L220.9655172413793,140.1733815234841L239.3793103448276,137.93158658344996L257.7931034482759,138.08765227543935L276.2068965517241,140.9282298704532L294.6206896551724,133.36382133015118L313.03448275862064,135.53554595949623L331.44827586206895,139.7415846089129L349.8620689655172,145.4645999845471L368.2758620689655,139.82211996600364L386.6896551724138,131.9387550114609L405.10344827586204,126.39228041860186L423.51724137931035,140.33991226187513L441.9310344827586,143.20596996986686L460.34482758620686,132.03112042100565L478.7586206896552,152.58219654370166L497.17241379310343,126.69121674407425L515.5862068965517,144.60965119373643L534,132.80689886077798" class="rv-xy-plot__series rv-xy-plot__series--line" transform="translate(46,5)" style="opacity: 1; stroke-width: 1.5; stroke: rgb(135, 206, 191);"/><path d="M0,52.32022698591211L18.413793103448274,97.47371719478379L36.82758620689655,113.52527836680031L55.241379310344826,97.04783530643957L73.6551724137931,104.3583527209979L92.06896551724138,126.31629508168575L110.48275862068965,122.31910235828404L128.89655172413794,128.17998334520917L147.3103448275862,120.51228934694332L165.72413793103448,126.53651605813724L184.13793103448276,121.34403303486344L202.55172413793102,132.21630624211258L220.9655172413793,131.56701836319465L239.3793103448276,128.90298155095593L257.7931034482759,116.22253032631372L276.2068965517241,124.07450014165157L294.6206896551724,131.848209609986L313.03448275862064,135.812187186113L331.44827586206895,112.96107586514769L349.8620689655172,135.54919602002008L368.2758620689655,134.9203832318879L386.6896551724138,125.08187460831195L405.10344827586204,127.93064223964012L423.51724137931035,118.5425856133513L441.9310344827586,135.199299468592L460.34482758620686,121.43321343028597L478.7586206896552,133.83656842629395L497.17241379310343,132.03385043311042L515.5862068965517,114.03670063442733L534,130.90271541770045" class="rv-xy-plot__series rv-xy-plot__series--line" transform="translate(46,5)" style="opacity: 1; stroke-width: 1.5; stroke: rgb(91, 197, 219);"/><path d="M0,49.61387498604947L18.413793103448274,103.9133607479203L36.82758620689655,113.088476430037L55.241379310344826,127.15622880592018L73.6551724137931,105.29292686486438L92.06896551724138,126.93054780525914L110.48275862068965,131.05650609960253L128.89655172413794,135.92684769451338L147.3103448275862,138.306053243821L165.72413793103448,138.92804100169124L184.13793103448276,142.68271764978581L202.55172413793102,136.45328502871664L220.9655172413793,127.20900903994574L239.3793103448276,147.3360232823674L257.7931034482759,140.57150828876317L276.2068965517241,136.05333825536775L294.6206896551724,132.4483572710181L313.03448275862064,136.94013718740075L331.44827586206895,135.54237098975815L349.8620689655172,137.6535803507808L368.2758620689655,127.95430234454813L386.6896551724138,149.06139093258244L405.10344827586204,137.82329610329404L423.51724137931035,139.89446528678005L441.9310344827586,131.22940686623798L460.34482758620686,132.36281689173526L478.7586206896552,151.08796991835717L497.17241379310343,129.97769631620065L515.5862068965517,149.06958096889676L534,130.6838594473013" class="rv-xy-plot__series rv-xy-plot__series--line" transform="translate(46,5)" style="opacity: 1; stroke-width: 1.5; stroke: rgb(83, 135, 221);"/><path d="M0,60.375582703055386L18.413793103448274,120.2388331344488L36.82758620689655,119.67918065297081L55.241379310344826,115.86944876076338L73.6551724137931,138.72784011400805L92.06896551724138,137.36965909188464L110.48275862068965,137.19266330709203L128.89655172413794,122.75499429101241L147.3103448275862,143.0958594816411L165.72413793103448,140.53101310920908L184.13793103448276,142.1007700694522L202.55172413793102,127.38327481263362L220.9655172413793,140.05508099894405L239.3793103448276,135.925482688461L257.7931034482759,134.57594670466935L276.2068965517241,142.25956577354634L294.6206896551724,128.55718001768497L313.03448275862064,151.88467845093277L331.44827586206895,130.8280950868367L349.8620689655172,138.80382545092417L368.2758620689655,137.734570709889L386.6896551724138,140.56468325850125L405.10344827586204,135.94732278529912L423.51724137931035,129.46126902638153L441.9310344827586,143.33200552870377L460.34482758620686,140.400882532215L478.7586206896552,149.37761733471837L497.17241379310343,116.32945580041724L515.5862068965517,153.4885605624855L534,122.65034382699622" class="rv-xy-plot__series rv-xy-plot__series--line" transform="translate(46,5)" style="opacity: 1; stroke-width: 1.5; stroke: rgb(240, 184, 153);"/><path d="M0,56.21003923319282L18.413793103448274,117.52793111441154L36.82758620689655,86.08183168359331L55.241379310344826,106.69660808873398L73.6551724137931,137.82648111741628L92.06896551724138,139.6173690581458L110.48275862068965,134.68833220298242L128.89655172413794,148.56088871337448L147.3103448275862,123.5967480233167L165.72413793103448,144.55323094357118L184.13793103448276,139.1901221637492L202.55172413793102,136.6061657065838L220.9655172413793,147.05437703355855L239.3793103448276,132.24224135710793L257.7931034482759,133.34835126155747L276.2068965517241,147.5321291518934L294.6206896551724,125.42722113956543L313.03448275862064,155.49648446554434L331.44827586206895,140.9641750298327L349.8620689655172,150.89686907102325L368.2758620689655,123.81059897152375L386.6896551724138,143.96855335113278L405.10344827586204,135.20930951297615L423.51724137931035,158.01492063219527L441.9310344827586,131.27354206193178L460.34482758620686,143.65824197522386L478.7586206896552,139.73475957865097L497.17241379310343,137.50752470317556L515.5862068965517,146.45832439068363L534,120.28069332005529" class="rv-xy-plot__series rv-xy-plot__series--line" transform="translate(46,5)" style="opacity: 1; stroke-width: 1.5; stroke: rgb(197, 101, 199);"/><path d="M0,35.471502279302555L18.413793103448274,94.61311951100161L36.82758620689655,110.2579088794073L55.241379310344826,106.21157593811972L73.6551724137931,102.84274100083275L92.06896551724138,137.65176034271096L110.48275862068965,114.98765485092245L128.89655172413794,125.19608011469485L147.3103448275862,134.0526943845883L165.72413793103448,123.08760076577697L184.13793103448276,128.9116265892877L202.55172413793102,122.72814917198217L220.9655172413793,127.2927294111587L239.3793103448276,138.3975086493308L257.7931034482759,122.1839667590979L276.2068965517241,119.93307177871449L294.6206896551724,135.03640874634067L313.03448275862064,117.41600061811596L331.44827586206895,121.81223011083162L349.8620689655172,139.83986504468464L368.2758620689655,117.1571044701802L386.6896551724138,129.28745825571113L405.10344827586204,135.2443446683207L423.51724137931035,118.23682425761699L441.9310344827586,129.98816136260228L460.34482758620686,135.30849995278282L478.7586206896552,119.0949580625499L497.17241379310343,135.13559918614735L515.5862068965517,122.27451216057278L534,109.52945064945101" class="rv-xy-plot__series rv-xy-plot__series--line" transform="translate(46,5)" style="opacity: 1; stroke-width: 1.5; stroke: rgb(161, 40, 100);"/><path d="M0,19.448151232368673L18.413793103448274,79.75593863482226L36.82758620689655,58.76942558141532L55.241379310344826,68.18205231664707L73.6551724137931,84.25408857944937L92.06896551724138,96.77665410403235L110.48275862068965,76.47264407681807L128.89655172413794,86.21833228883183L147.3103448275862,91.78437196844176L165.72413793103448,82.57103611685827L184.13793103448276,97.34768163594688L202.55172413793102,81.60779684589167L220.9655172413793,101.07915318115091L239.3793103448276,85.3451834173227L257.7931034482759,84.42016431582292L276.2068965517241,89.79874316423854L294.6206896551724,95.084501601092L313.03448275862064,73.82908235536516L331.44827586206895,94.60856949082698L349.8620689655172,91.59054110900303L368.2758620689655,94.91706085866606L386.6896551724138,77.47592352532129L405.10344827586204,85.2509979997081L423.51724137931035,89.16856537005398L441.9310344827586,101.59057544877794L460.34482758620686,86.19467218392383L478.7586206896552,87.64567361760945L497.17241379310343,82.05551883107407L515.5862068965517,86.9522505429977L534,106.43771194079822" class="rv-xy-plot__series rv-xy-plot__series--line" transform="translate(46,5)" style="opacity: 1; stroke-width: 1.5; stroke: rgb(34, 148, 135);"/><path d="M0,0L18.413793103448274,61.54220787582738L36.82758620689655,50.62625447490192L55.241379310344826,61.35838706077281L73.6551724137931,70.78193384442366L92.06896551724138,75.26188370835229L110.48275862068965,74.11709863241848L128.89655172413794,99.24913506691964L147.3103448275862,100.4530704051235L165.72413793103448,73.26851986985226L184.13793103448276,89.31598602371162L202.55172413793102,85.31105826601306L220.9655172413793,78.45235785479426L239.3793103448276,87.7867242430226L257.7931034482759,85.5440192989535L276.2068965517241,78.1852716705442L294.6206896551724,90.15091472575398L313.03448275862064,106.91455405509818L331.44827586206895,75.7760359880841L349.8620689655172,93.31135873904346L368.2758620689655,84.0347776070328L386.6896551724138,81.61917189632821L405.10344827586204,92.24665401818292L423.51724137931035,101.82353648171836L441.9310344827586,76.33750847763193L460.34482758620686,96.49136783908381L478.7586206896552,90.66552200750323L497.17241379310343,76.11273748100581L515.5862068965517,95.1809620287939L534,89.7946481460814" class="rv-xy-plot__series rv-xy-plot__series--line" transform="translate(46,5)" style="opacity: 1; stroke-width: 1.5; stroke: rgb(161, 169, 173);"/><path d="M0,4.830301417374218L18.413793103448274,62.387146622253894L36.82758620689655,69.86601478327309L55.241379310344826,66.22508863954397L73.6551724137931,87.10831623498709L92.06896551724138,78.56474335310732L110.48275862068965,86.1796571173476L128.89655172413794,91.71020663959547L147.3103448275862,86.54092871921225L165.72413793103448,84.73593571594138L184.13793103448276,92.5192002266425L202.55172413793102,77.84083514332563L220.9655172413793,93.40235914253583L239.3793103448276,103.3527982624074L257.7931034482759,75.00935758866102L276.2068965517241,93.08840775048719L294.6206896551724,90.33064052265138L313.03448275862064,78.45417786286411L331.44827586206895,95.46124327155034L349.8620689655172,91.4467604714851L368.2758620689655,74.3059244696651L386.6896551724138,98.94655872530755L405.10344827586204,86.9831906801851L423.51724137931035,90.27831529064326L441.9310344827586,85.472583982212L460.34482758620686,88.87190405466893L478.7586206896552,100.58547599220488L497.17241379310343,79.75047861061272L515.5862068965517,91.47406059253282L534,75.23594859335697" class="rv-xy-plot__series rv-xy-plot__series--line" transform="translate(46,5)" style="opacity: 1; stroke-width: 1.5; stroke: rgb(229, 116, 57);"/><g class="rv-xy-plot__series rv-xy-plot__series--mark" transform="translate(46,5)"><circle r="2" cx="534" cy="75.23594859335697" style="opacity: 1; stroke: rgb(229, 116, 57); fill: rgb(229, 116, 57); stroke-width: 1;"/></g><g class="rv-xy-plot__series rv-xy-plot__series--mark" transform="translate(46,5)"><circle r="2" cx="534" cy="89.7946481460814" style="opacity: 1; stroke: rgb(161, 169, 173); fill: rgb(161, 169, 173); stroke-width: 1;"/></g><g class="rv-xy-plot__series rv-xy-plot__series--mark" transform="translate(46,5)"><circle r="2" cx="534" cy="106.43771194079822" style="opacity: 1; stroke: rgb(34, 148, 135); fill: rgb(34, 148, 135); stroke-width: 1;"/></g><g class="rv-xy-plot__series rv-xy-plot__series--mark" transform="translate(46,5)"><circle r="2" cx="534" cy="109.52945064945101" style="opacity: 1; stroke: rgb(161, 40, 100); fill: rgb(161, 40, 100); stroke-width: 1;"/></g><g class="rv-xy-plot__series rv-xy-plot__series--mark" transform="translate(46,5)"><circle r="2" cx="534" cy="120.28069332005529" style="opacity: 1; stroke: rgb(197, 101, 199); fill: rgb(197, 101, 199); stroke-width: 1;"/></g><g class="rv-xy-plot__series rv-xy-plot__series--mark" transform="translate(46,5)"><circle r="2" cx="534" cy="122.65034382699622" style="opacity: 1; stroke: rgb(240, 184, 153); fill: rgb(240, 184, 153); stroke-width: 1;"/></g><g class="rv-xy-plot__series rv-xy-plot__series--mark" transform="translate(46,5)"><circle r="2" cx="534" cy="130.6838594473013" style="opacity: 1; stroke: rgb(83, 135, 221); fill: rgb(83, 135, 221); stroke-width: 1;"/></g><g class="rv-xy-plot__series rv-xy-plot__series--mark" transform="translate(46,5)"><circle r="2" cx="534" cy="130.90271541770045" style="opacity: 1; stroke: rgb(91, 197, 219); fill: rgb(91, 197, 219); stroke-width: 1;"/></g><g class="rv-xy-plot__series rv-xy-plot__series--mark" transform="translate(46,5)"><circle r="2" cx="534" cy="132.80689886077798" style="opacity: 1; stroke: rgb(135, 206, 191); fill: rgb(135, 206, 191); stroke-width: 1;"/></g><g class="rv-xy-plot__series rv-xy-plot__series--mark" transform="translate(46,5)"><circle r="2" cx="534" cy="133.96897401337534" style="opacity: 1; stroke: rgb(218, 76, 76); fill: rgb(218, 76, 76); stroke-width: 1;"/></g><defs class="rv-gradient-defs"><linearGradient id="leftFadeGradient" x1="0" x2="1" y1="0" y2="0"><stop offset="0%" stop-color="white" stop-opacity="1"/><stop offset="60%" stop-color="white" stop-opacity="1"/><stop offset="100%" stop-color="white" stop-opacity="0"/></linearGradient><linearGradient id="rightFadeGradient" x1="1" x2="0" y1="0" y2="0"><stop offset="0%" stop-color="white" stop-opacity="1"/><stop offset="100%" stop-color="white" stop-opacity="0"/></linearGradient><linearGradient id="bottomFadeGradient" x1="0" x2="0" y1="1" y2="0"><stop offset="0%" stop-color="white" stop-opacity="1"/><stop offset="40%" stop-color="white" stop-opacity="1"/><stop offset="100%" stop-color="white" stop-opacity="0"/></linearGradient><linearGradient id="topFadeGradient" x1="0" x2="0" y1="0" y2="1"><stop offset="0%" stop-color="white" stop-opacity="1"/><stop offset="100%" stop-color="white" stop-opacity="0"/></linearGradient></defs><g class="rv-xy-plot__borders plot-border"><rect class="rv-xy-plot__borders-bottom plot-border-bottom" x="0" y="164" width="600" height="30" style="fill: url(&quot;#bottomFadeGradient&quot;); opacity: 1;"/><rect class="rv-xy-plot__borders-left plot-border-left" x="0" y="0" width="46" height="194" style="fill: url(&quot;#leftFadeGradient&quot;); opacity: 1;"/><rect class="rv-xy-plot__borders-right plot-border-right" x="580" y="0" width="20" height="194" style="fill: url(&quot;#rightFadeGradient&quot;); opacity: 1;"/><rect class="rv-xy-plot__borders-top plot-border-top" x="0" y="0" width="600" height="5" style="fill: url(&quot;#topFadeGradient&quot;); opacity: 1;"/></g><g transform="translate(46,4877.61569499412)" class="rv-xy-plot__axis rv-xy-plot__axis--horizontal"><line x1="0" x2="534" y1="0" y2="0" class="rv-xy-plot__axis__line"/><g transform="translate(0, 0)" class="rv-xy-plot__axis__ticks"/></g><g transform="translate(46,164)" class="rv-xy-plot__axis rv-xy-plot__axis--horizontal" style="font-family: &quot;Source Sans Pro&quot;; fill: rgb(107, 107, 118); font-size: 11px;"><line x1="0" x2="534" y1="0" y2="0" class="rv-xy-plot__axis__line" style="font-family: &quot;Source Sans Pro&quot;; fill: rgb(107, 107, 118); font-size: 11px; stroke-width: 0;"/><g transform="translate(0, 0)" class="rv-xy-plot__axis__ticks"><g transform="translate(0, 0)" class="rv-xy-plot__axis__tick" style="font-family: &quot;Source Sans Pro&quot;; fill: rgb(107, 107, 118); font-size: 11px;"><line x1="0" x2="0" y1="-6" y2="6" class="rv-xy-plot__axis__tick__line" style="font-family: &quot;Source Sans Pro&quot;; fill: rgb(107, 107, 118); font-size: 11px; stroke-width: 0;"/><text text-anchor="middle" dy="0.72em" transform="translate(0, 14)" class="rv-xy-plot__axis__tick__text" style="font-family: sans-serif; fill: rgb(107, 107, 118); font-size: 11px;">0</text></g><g transform="translate(92.06896551724138, 0)" class="rv-xy-plot__axis__tick" style="font-family: &quot;Source Sans Pro&quot;; fill: rgb(107, 107, 118); font-size: 11px;"><line x1="0" x2="0" y1="-6" y2="6" class="rv-xy-plot__axis__tick__line" style="font-family: &quot;Source Sans Pro&quot;; fill: rgb(107, 107, 118); font-size: 11px; stroke-width: 0;"/><text text-anchor="middle" dy="0.72em" transform="translate(0, 14)" class="rv-xy-plot__axis__tick__text" style="font-family: sans-serif; fill: rgb(107, 107, 118); font-size: 11px;">5</text></g><g transform="translate(184.13793103448276, 0)" class="rv-xy-plot__axis__tick" style="font-family: &quot;Source Sans Pro&quot;; fill: rgb(107, 107, 118); font-size: 11px;"><line x1="0" x2="0" y1="-6" y2="6" class="rv-xy-plot__axis__tick__line" style="font-family: &quot;Source Sans Pro&quot;; fill: rgb(107, 107, 118); font-size: 11px; stroke-width: 0;"/><text text-anchor="middle" dy="0.72em" transform="translate(0, 14)" class="rv-xy-plot__axis__tick__text" style="font-family: sans-serif; fill: rgb(107, 107, 118); font-size: 11px;">10</text></g><g transform="translate(276.2068965517241, 0)" class="rv-xy-plot__axis__tick" style="font-family: &quot;Source Sans Pro&quot;; fill: rgb(107, 107, 118); font-size: 11px;"><line x1="0" x2="0" y1="-6" y2="6" class="rv-xy-plot__axis__tick__line" style="font-family: &quot;Source Sans Pro&quot;; fill: rgb(107, 107, 118); font-size: 11px; stroke-width: 0;"/><text text-anchor="middle" dy="0.72em" transform="translate(0, 14)" class="rv-xy-plot__axis__tick__text" style="font-family: sans-serif; fill: rgb(107, 107, 118); font-size: 11px;">15</text></g><g transform="translate(368.2758620689655, 0)" class="rv-xy-plot__axis__tick" style="font-family: &quot;Source Sans Pro&quot;; fill: rgb(107, 107, 118); font-size: 11px;"><line x1="0" x2="0" y1="-6" y2="6" class="rv-xy-plot__axis__tick__line" style="font-family: &quot;Source Sans Pro&quot;; fill: rgb(107, 107, 118); font-size: 11px; stroke-width: 0;"/><text text-anchor="middle" dy="0.72em" transform="translate(0, 14)" class="rv-xy-plot__axis__tick__text" style="font-family: sans-serif; fill: rgb(107, 107, 118); font-size: 11px;">20</text></g><g transform="translate(460.34482758620686, 0)" class="rv-xy-plot__axis__tick" style="font-family: &quot;Source Sans Pro&quot;; fill: rgb(107, 107, 118); font-size: 11px;"><line x1="0" x2="0" y1="-6" y2="6" class="rv-xy-plot__axis__tick__line" style="font-family: &quot;Source Sans Pro&quot;; fill: rgb(107, 107, 118); font-size: 11px; stroke-width: 0;"/><text text-anchor="middle" dy="0.72em" transform="translate(0, 14)" class="rv-xy-plot__axis__tick__text" style="font-family: sans-serif; fill: rgb(107, 107, 118); font-size: 11px;">25</text></g></g><g transform="translate(0, 0)" class="rv-xy-plot__axis__title"><g transform="translate(528, -6) rotate(0)" style="text-anchor: end; font-family: &quot;Source Sans Pro&quot;; fill: rgb(107, 107, 118); font-size: 11px;"><text style="font-family: sans-serif; fill: rgb(107, 107, 118); font-size: 11px;">epoch</text></g></g></g><g transform="translate(46,164)" class="rv-xy-plot__axis rv-xy-plot__axis--horizontal"><line x1="0" x2="0" y1="0" y2="0" class="rv-xy-plot__axis__line"/><g transform="translate(0, 0)" class="rv-xy-plot__axis__ticks"><g transform="translate(0, 0)" class="rv-xy-plot__axis__tick"><line x1="0" x2="0" y1="-6" y2="6" class="rv-xy-plot__axis__tick__line"/><text text-anchor="middle" dy="0.72em" transform="translate(0, 14)" class="rv-xy-plot__axis__tick__text" style="font-family: sans-serif;"/></g><g transform="translate(92.06896551724138, 0)" class="rv-xy-plot__axis__tick"><line x1="0" x2="0" y1="-6" y2="6" class="rv-xy-plot__axis__tick__line"/><text text-anchor="middle" dy="0.72em" transform="translate(0, 14)" class="rv-xy-plot__axis__tick__text" style="font-family: sans-serif;"/></g><g transform="translate(184.13793103448276, 0)" class="rv-xy-plot__axis__tick"><line x1="0" x2="0" y1="-6" y2="6" class="rv-xy-plot__axis__tick__line"/><text text-anchor="middle" dy="0.72em" transform="translate(0, 14)" class="rv-xy-plot__axis__tick__text" style="font-family: sans-serif;"/></g><g transform="translate(276.2068965517241, 0)" class="rv-xy-plot__axis__tick"><line x1="0" x2="0" y1="-6" y2="6" class="rv-xy-plot__axis__tick__line"/><text text-anchor="middle" dy="0.72em" transform="translate(0, 14)" class="rv-xy-plot__axis__tick__text" style="font-family: sans-serif;"/></g><g transform="translate(368.2758620689655, 0)" class="rv-xy-plot__axis__tick"><line x1="0" x2="0" y1="-6" y2="6" class="rv-xy-plot__axis__tick__line"/><text text-anchor="middle" dy="0.72em" transform="translate(0, 14)" class="rv-xy-plot__axis__tick__text" style="font-family: sans-serif;"/></g><g transform="translate(460.34482758620686, 0)" class="rv-xy-plot__axis__tick"><line x1="0" x2="0" y1="-6" y2="6" class="rv-xy-plot__axis__tick__line"/><text text-anchor="middle" dy="0.72em" transform="translate(0, 14)" class="rv-xy-plot__axis__tick__text" style="font-family: sans-serif;"/></g></g></g><g transform="translate(0,5)" class="rv-xy-plot__axis rv-xy-plot__axis--vertical" style="font-family: &quot;Source Sans Pro&quot;; fill: rgb(107, 107, 118); font-size: 11px;"><line x1="46" x2="46" y1="0" y2="159" class="rv-xy-plot__axis__line" style="font-family: &quot;Source Sans Pro&quot;; fill: rgb(107, 107, 118); font-size: 11px; stroke: none;"/><g transform="translate(46, 0)" class="rv-xy-plot__axis__ticks"><g transform="translate(0, 139.74207601109177)" class="rv-xy-plot__axis__tick" style="font-family: &quot;Source Sans Pro&quot;; fill: rgb(107, 107, 118); font-size: 11px;"><line y1="0" y2="0" x1="6" x2="-6" class="rv-xy-plot__axis__tick__line" style="font-family: &quot;Source Sans Pro&quot;; fill: rgb(107, 107, 118); font-size: 11px; stroke: none;"/><text text-anchor="end" dy="0.32em" transform="translate(-14, 0)" class="rv-xy-plot__axis__tick__text" style="font-family: sans-serif; fill: rgb(107, 107, 118); font-size: 11px;">0.31</text></g><g transform="translate(0, 109.20740750152385)" class="rv-xy-plot__axis__tick" style="font-family: &quot;Source Sans Pro&quot;; fill: rgb(107, 107, 118); font-size: 11px;"><line y1="0" y2="0" x1="6" x2="-6" class="rv-xy-plot__axis__tick__line" style="font-family: &quot;Source Sans Pro&quot;; fill: rgb(107, 107, 118); font-size: 11px; stroke: none;"/><text text-anchor="end" dy="0.32em" transform="translate(-14, 0)" class="rv-xy-plot__axis__tick__text" style="font-family: sans-serif; fill: rgb(107, 107, 118); font-size: 11px;">0.312</text></g><g transform="translate(0, 78.67273899195588)" class="rv-xy-plot__axis__tick" style="font-family: &quot;Source Sans Pro&quot;; fill: rgb(107, 107, 118); font-size: 11px;"><line y1="0" y2="0" x1="6" x2="-6" class="rv-xy-plot__axis__tick__line" style="font-family: &quot;Source Sans Pro&quot;; fill: rgb(107, 107, 118); font-size: 11px; stroke: none;"/><text text-anchor="end" dy="0.32em" transform="translate(-14, 0)" class="rv-xy-plot__axis__tick__text" style="font-family: sans-serif; fill: rgb(107, 107, 118); font-size: 11px;">0.314</text></g><g transform="translate(0, 48.13807048238793)" class="rv-xy-plot__axis__tick" style="font-family: &quot;Source Sans Pro&quot;; fill: rgb(107, 107, 118); font-size: 11px;"><line y1="0" y2="0" x1="6" x2="-6" class="rv-xy-plot__axis__tick__line" style="font-family: &quot;Source Sans Pro&quot;; fill: rgb(107, 107, 118); font-size: 11px; stroke: none;"/><text text-anchor="end" dy="0.32em" transform="translate(-14, 0)" class="rv-xy-plot__axis__tick__text" style="font-family: sans-serif; fill: rgb(107, 107, 118); font-size: 11px;">0.316</text></g><g transform="translate(0, 17.603401972819995)" class="rv-xy-plot__axis__tick" style="font-family: &quot;Source Sans Pro&quot;; fill: rgb(107, 107, 118); font-size: 11px;"><line y1="0" y2="0" x1="6" x2="-6" class="rv-xy-plot__axis__tick__line" style="font-family: &quot;Source Sans Pro&quot;; fill: rgb(107, 107, 118); font-size: 11px; stroke: none;"/><text text-anchor="end" dy="0.32em" transform="translate(-14, 0)" class="rv-xy-plot__axis__tick__text" style="font-family: sans-serif; fill: rgb(107, 107, 118); font-size: 11px;">0.318</text></g></g></g></svg></g><style xmlns="http://www.w3.org/1999/xhtml">/*&lt;![CDATA[*/<br />text { font-size: 10px; fill: black }<br />.react-vis-magic-css-import-rule{display:inherit}.rv-treemap{font-size:12px;position:relative}.rv-treemap__leaf{overflow:hidden;position:absolute}.rv-treemap__leaf--circle{align-items:center;border-radius:100%;display:flex;justify-content:center}.rv-treemap__leaf__content{overflow:hidden;padding:10px;text-overflow:ellipsis}.rv-xy-plot{color:#c3c3c3;position:relative}.rv-xy-plot canvas{pointer-events:none}.rv-xy-plot .rv-xy-canvas{pointer-events:none;position:absolute}.rv-xy-plot__inner{display:block}.rv-xy-plot__axis__line{fill:none;stroke-width:2px;stroke:#e6e6e9}.rv-xy-plot__axis__tick__line{stroke:#e6e6e9}.rv-xy-plot__axis__tick__text{fill:#6b6b76;font-size:11px}.rv-xy-plot__axis__title text{fill:#6b6b76;font-size:11px}.rv-xy-plot__grid-lines__line{stroke:#e6e6e9}.rv-xy-plot__circular-grid-lines__line{fill-opacity:0;stroke:#e6e6e9}.rv-xy-plot__series,.rv-xy-plot__series path{pointer-events:all}.rv-xy-plot__series--line{fill:none;stroke:#000;stroke-width:2px}.rv-crosshair{position:absolute;font-size:11px;pointer-events:none}.rv-crosshair__line{background:#47d3d9;width:1px}.rv-crosshair__inner{position:absolute;text-align:left;top:0}.rv-crosshair__inner__content{border-radius:4px;background:#3a3a48;color:#fff;font-size:12px;padding:7px 10px;box-shadow:0 2px 4px rgba(0,0,0,0.5)}.rv-crosshair__inner--left{right:4px}.rv-crosshair__inner--right{left:4px}.rv-crosshair__title{font-weight:bold;white-space:nowrap}.rv-crosshair__item{white-space:nowrap}.rv-hint{position:absolute;pointer-events:none}.rv-hint__content{border-radius:4px;padding:7px 10px;font-size:12px;background:#3a3a48;box-shadow:0 2px 4px rgba(0,0,0,0.5);color:#fff;text-align:left;white-space:nowrap}.rv-discrete-color-legend{box-sizing:border-box;overflow-y:auto;font-size:12px}.rv-discrete-color-legend.horizontal{white-space:nowrap}.rv-discrete-color-legend-item{color:#3a3a48;border-radius:1px;padding:9px 10px}.rv-discrete-color-legend-item.horizontal{display:inline-block}.rv-discrete-color-legend-item.horizontal .rv-discrete-color-legend-item__title{margin-left:0;display:block}.rv-discrete-color-legend-item__color{display:inline-block;vertical-align:middle;overflow:visible}.rv-discrete-color-legend-item__color__path{stroke:#dcdcdc;stroke-width:2px}.rv-discrete-color-legend-item__title{margin-left:10px}.rv-discrete-color-legend-item.disabled{color:#b8b8b8}.rv-discrete-color-legend-item.clickable{cursor:pointer}.rv-discrete-color-legend-item.clickable:hover{background:#f9f9f9}.rv-search-wrapper{display:flex;flex-direction:column}.rv-search-wrapper__form{flex:0}.rv-search-wrapper__form__input{width:100%;color:#a6a6a5;border:1px solid #e5e5e4;padding:7px 10px;font-size:12px;box-sizing:border-box;border-radius:2px;margin:0 0 9px;outline:0}.rv-search-wrapper__contents{flex:1;overflow:auto}.rv-continuous-color-legend{font-size:12px}.rv-continuous-color-legend .rv-gradient{height:4px;border-radius:2px;margin-bottom:5px}.rv-continuous-size-legend{font-size:12px}.rv-continuous-size-legend .rv-bubbles{text-align:justify;overflow:hidden;margin-bottom:5px;width:100%}.rv-continuous-size-legend .rv-bubble{background:#d8d9dc;display:inline-block;vertical-align:bottom}.rv-continuous-size-legend .rv-spacer{display:inline-block;font-size:0;line-height:0;width:100%}.rv-legend-titles{height:16px;position:relative}.rv-legend-titles__left,.rv-legend-titles__right,.rv-legend-titles__center{position:absolute;white-space:nowrap;overflow:hidden}.rv-legend-titles__center{display:block;text-align:center;width:100%}.rv-legend-titles__right{right:0}.rv-radial-chart .rv-xy-plot__series--label{pointer-events:none}<br /><br />/*]]&gt;*/</style></svg>